<svg width="50" height="51" viewBox="0 0 50 51" fill="none" xmlns="http://www.w3.org/2000/svg">
<g clip-path="url(#clip0_773_1928)">
<circle cx="28.1915" cy="21.2447" r="11.1702" fill="#FFC122"/>
<path d="M45.3995 21.1655C46.4162 19.154 45.9953 16.7663 44.3518 15.2238L42.0182 13.0334C41.4891 12.5369 41.1793 12.0005 41.0139 11.2938L40.2838 8.17783C39.7697 5.9833 37.9124 4.42471 35.662 4.29961L32.4663 4.12188C31.7419 4.08164 31.1598 3.86973 30.5789 3.43496L28.0167 1.51699C26.2122 0.166211 23.7876 0.166211 21.9834 1.51699L19.4212 3.43496C18.8404 3.86973 18.2581 4.08164 17.5336 4.12188L14.3381 4.29961C12.0878 4.42471 10.2304 5.9832 9.71623 8.17783L8.98625 11.2939C8.82082 12.0004 8.51105 12.5369 7.98195 13.0335L5.64836 15.2238C4.0049 16.7663 3.5839 19.154 4.6006 21.1655L6.04445 24.0218C6.37189 24.6695 6.47931 25.2796 6.39318 26L6.0134 29.1779C5.74592 31.4158 6.95822 33.5156 9.0301 34.4029L11.9721 35.663C12.3232 35.8133 12.6199 35.9961 12.8812 36.2229L8.38566 45.8786C8.32545 46.0081 8.30185 46.1515 8.31742 46.2935C8.333 46.4354 8.38716 46.5703 8.47401 46.6836C8.56087 46.7969 8.67711 46.8843 8.81011 46.9362C8.94311 46.9881 9.08779 47.0026 9.22844 46.978L13.6856 46.1992L15.9587 50.1112C16.0304 50.2347 16.1346 50.3362 16.2599 50.4046C16.3853 50.473 16.527 50.5058 16.6696 50.4993C16.8123 50.4928 16.9504 50.4474 17.0691 50.3679C17.1877 50.2884 17.2823 50.1779 17.3425 50.0484L21.28 41.5909L23.9957 40.7702C24.6902 40.5603 25.3099 40.5603 26.0043 40.7702L28.8521 41.6309L32.771 50.0484C32.8339 50.1833 32.9339 50.2975 33.0594 50.3774C33.1849 50.4574 33.3306 50.4999 33.4794 50.4999C33.7568 50.4999 34.0145 50.3524 34.1548 50.1112L36.428 46.1992L40.8851 46.978C41.0257 47.0026 41.1705 46.9882 41.3035 46.9363C41.4365 46.8844 41.5528 46.7971 41.6397 46.6838C41.7266 46.5704 41.7807 46.4354 41.7963 46.2935C41.8118 46.1516 41.7881 46.0081 41.7279 45.8786L37.2005 36.1544C37.4418 35.9591 37.7128 35.7978 38.0279 35.6628L40.9699 34.4028C43.0418 33.5155 44.2541 31.4158 43.9867 29.1778L43.6069 25.9998C43.5206 25.2794 43.6282 24.6693 43.9556 24.0218L45.3995 21.1655ZM16.5577 48.0321L14.7629 44.9436C14.6826 44.8055 14.5619 44.6954 14.4171 44.628C14.2723 44.5606 14.1103 44.5391 13.9529 44.5665L10.434 45.1813L13.9511 37.6272L15.2627 39.6328C16.2063 41.0756 17.7612 41.8987 19.4058 41.9147L16.5577 48.0321ZM36.1606 44.5664C36.0032 44.539 35.8412 44.5604 35.6964 44.6278C35.5516 44.6952 35.4309 44.8054 35.3506 44.9435L33.5558 48.032L30.7071 41.9132C32.3098 41.8614 33.8153 41.0426 34.7374 39.6327L36.1154 37.5259L39.6796 45.1813L36.1606 44.5664ZM42.5612 23.317C42.0993 24.2307 41.9338 25.1689 42.0554 26.1854L42.4353 29.3634C42.6226 30.9309 41.806 32.3452 40.3548 32.9667L37.4127 34.2266C36.4716 34.6296 35.7418 35.242 35.1815 36.0988L33.4297 38.7774C32.5656 40.0984 31.031 40.6571 29.52 40.2004L26.4564 39.2746C25.4765 38.9786 24.5238 38.9786 23.5437 39.2746L20.48 40.2004C18.969 40.6571 17.4343 40.0985 16.5703 38.7774L14.8186 36.0988C14.2582 35.2421 13.5283 34.6296 12.5872 34.2267L9.64523 32.9667C8.19416 32.3452 7.37746 30.9308 7.56486 29.3634L7.94465 26.1855C8.06623 25.1691 7.9008 24.2309 7.43888 23.317L5.99504 20.4606C5.28293 19.0519 5.56652 17.4435 6.7175 16.3632L9.05109 14.1729C9.79767 13.4723 10.2739 12.6472 10.5074 11.6504L11.2374 8.53438C11.5976 6.99736 12.8487 5.94756 14.4248 5.85977L17.6202 5.68203C18.6425 5.62529 19.5378 5.29941 20.3574 4.68594L22.9196 2.76797C23.5516 2.29492 24.2758 2.0585 25 2.0585C25.7242 2.0585 26.4485 2.29492 27.0804 2.76797L29.6426 4.68594C30.4623 5.29941 31.3576 5.62529 32.3796 5.68203L35.5752 5.85977C37.1514 5.94746 38.4025 6.99727 38.7625 8.53438L39.4926 11.6504C39.7261 12.6473 40.2025 13.4724 40.9489 14.1729L43.2825 16.3632C44.4335 17.4436 44.7171 19.0519 44.005 20.4606L42.5612 23.317ZM25 7.98369C17.7075 7.98369 11.7746 13.9166 11.7746 21.2091C11.7746 28.5017 17.7075 34.4346 25 34.4346C32.2925 34.4346 38.2254 28.5017 38.2254 21.2091C38.2254 13.9166 32.2925 7.98369 25 7.98369ZM25 32.872C18.5691 32.872 13.3371 27.64 13.3371 21.209C13.3371 14.778 18.5691 9.54609 25 9.54609C31.431 9.54609 36.6629 14.778 36.6629 21.209C36.6629 27.64 31.431 32.872 25 32.872ZM30.7126 14.8698C30.0115 14.8725 29.3541 15.148 28.8613 15.6456L23.3628 21.199L21.1375 18.9736C20.1131 17.9494 18.4464 17.9493 17.4222 18.9737C16.3981 19.9979 16.3981 21.6646 17.4222 22.6889L21.5119 26.7785C22.0241 27.2906 22.6969 27.5467 23.3695 27.5467C24.0422 27.5467 24.7149 27.2906 25.2271 26.7785C26.7769 25.2286 31.6731 20.2625 32.5855 19.3417C33.6028 18.315 33.5973 16.6516 32.5736 15.6334C32.0758 15.1384 31.413 14.8658 30.7126 14.8698ZM31.4757 18.242C30.5623 19.1638 25.6683 24.1278 24.1223 25.6737C23.7072 26.0891 23.032 26.0888 22.6169 25.6737L18.5272 21.5842C18.1121 21.169 18.1121 20.4937 18.5272 20.0787C18.7347 19.8711 19.0072 19.7674 19.2799 19.7674C19.5526 19.7674 19.8251 19.8712 20.0326 20.0787L22.8132 22.8593C22.9597 23.0058 23.1584 23.0881 23.3656 23.0881H23.3676C23.4705 23.0879 23.5724 23.0673 23.6673 23.0276C23.7623 22.9878 23.8484 22.9297 23.9208 22.8565L29.9717 16.7452C30.0693 16.6462 30.1856 16.5676 30.3138 16.5139C30.442 16.4602 30.5796 16.4325 30.7186 16.4324H30.7228C31.0056 16.4324 31.2714 16.5421 31.4719 16.7415C31.8859 17.153 31.8875 17.8263 31.4757 18.242Z" fill="#2C2727"/>
</g>
<defs>
<clipPath id="clip0_773_1928">
<rect width="50" height="50" fill="white" transform="translate(0 0.5)"/>
</clipPath>
</defs>
</svg>
