<svg width="55" height="55" viewBox="0 0 55 55" fill="none" xmlns="http://www.w3.org/2000/svg">
<g clip-path="url(#clip0_773_1947)">
<circle cx="22.5" cy="35.5" r="8.5" fill="#FFC122"/>
<path d="M52.5566 42.301L43.9105 23.8399C43.8186 23.6484 43.6549 23.501 43.4548 23.4296C43.2548 23.3582 43.0346 23.3688 42.8423 23.4588C42.65 23.5489 42.501 23.7113 42.4277 23.9107C42.3545 24.11 42.3629 24.3302 42.4512 24.5234L51.0972 42.9841C51.4839 43.8111 51.126 44.7991 50.2993 45.1865L33.7223 52.9497C32.8956 53.3369 31.9079 52.9793 31.5204 52.1526L28.4212 45.5331L36.4879 26.0703C36.6602 25.6529 36.7445 25.2044 36.7353 24.7529C36.7261 24.3015 36.6237 23.8567 36.4345 23.4467L32.0221 13.9155L37.7416 15.7249C37.9598 15.794 38.1613 15.9076 38.3334 16.0585C38.5055 16.2094 38.6445 16.3944 38.7416 16.6017L40.8602 21.1235C40.9508 21.317 41.1146 21.4666 41.3156 21.5393C41.5165 21.612 41.7381 21.6019 41.9316 21.5113C42.0274 21.4664 42.1135 21.4031 42.1848 21.3249C42.2561 21.2468 42.3114 21.1553 42.3474 21.0558C42.3834 20.9563 42.3994 20.8507 42.3946 20.745C42.3898 20.6393 42.3642 20.5356 42.3193 20.4398L40.201 15.9187C40.0093 15.5096 39.735 15.1447 39.3952 14.8469C39.0555 14.5491 38.6578 14.3249 38.2271 14.1884L31.3295 12.0062C32.7516 9.9289 34.2496 7.15106 34.765 5.90743C36.1166 2.64651 35.0257 0.833003 33.5542 0.223058C32.0827 -0.386672 30.0289 0.123478 28.6773 3.3844C28.096 4.7869 27.5627 7.84135 27.1833 10.4617C26.7221 10.49 26.2679 10.5883 25.8363 10.7533L15.4005 14.7406C14.9859 14.8998 14.608 15.1416 14.2896 15.4512C13.9712 15.7608 13.719 16.1318 13.5482 16.5417L2.38647 43.4731C2.05228 44.2794 2.05207 45.1675 2.38594 45.9739C2.7197 46.7803 3.34758 47.4084 4.15379 47.7425L7.41836 49.0955C7.5161 49.136 7.62087 49.1568 7.72668 49.1569C7.8325 49.1569 7.93727 49.1361 8.03504 49.0956C8.13281 49.0551 8.22164 48.9958 8.29648 48.921C8.37132 48.8462 8.43069 48.7574 8.4712 48.6597C8.51172 48.5619 8.53259 48.4571 8.53261 48.3513C8.53264 48.2455 8.51182 48.1407 8.47135 48.043C8.43088 47.9452 8.37155 47.8564 8.29675 47.7815C8.22195 47.7067 8.13314 47.6473 8.03539 47.6068L4.77082 46.2537C4.36229 46.0844 4.044 45.7661 3.87481 45.3574C3.70562 44.9486 3.70573 44.4986 3.87513 44.09L15.0372 17.1583C15.1238 16.9506 15.2516 16.7625 15.413 16.6056C15.5743 16.4487 15.7658 16.3262 15.976 16.2454L26.4117 12.2581C26.5881 12.1908 26.7705 12.1404 26.9565 12.1076C26.8726 12.7453 26.793 13.3836 26.7177 14.0223C26.3714 14.0423 26.0321 14.1283 25.7181 14.2757C25.0596 14.5841 24.5606 15.1304 24.3131 15.814C24.0655 16.4978 24.099 17.2368 24.4073 17.8953C24.8696 18.8826 25.8525 19.4629 26.8768 19.4629C27.2627 19.4629 27.6548 19.3804 28.0269 19.2061C28.6854 18.8978 29.1844 18.3514 29.432 17.6678C29.6795 16.9841 29.6461 16.245 29.3378 15.5865C29.1081 15.0962 28.7463 14.6947 28.2943 14.4192C28.3542 13.9061 28.4457 13.1495 28.5617 12.2688C29.2591 12.5406 29.8553 13.0703 30.1904 13.7944L34.972 24.1234C35.0679 24.3312 35.1198 24.5566 35.1245 24.7854C35.1291 25.0142 35.0864 25.2415 34.999 25.4531L23.8444 52.3666C23.7617 52.5678 23.6399 52.7506 23.486 52.9044C23.3322 53.0582 23.1493 53.1799 22.9481 53.2626C22.7473 53.3464 22.5319 53.3895 22.3144 53.3895C22.0968 53.3894 21.8815 53.3462 21.6807 53.2624L11.712 49.1308C11.5151 49.0515 11.2948 49.0531 11.099 49.1352C10.9033 49.2174 10.7479 49.3735 10.6666 49.5697C10.5853 49.7658 10.5847 49.9861 10.6649 50.1827C10.7451 50.3793 10.8997 50.5362 11.095 50.6195L21.0637 54.751C21.4588 54.9153 21.8825 54.9999 22.3104 54.9999C23.593 54.9999 24.8123 54.2401 25.333 52.9835L27.5855 47.5489L30.061 52.836C30.616 54.0207 31.7958 54.7172 33.0249 54.7172C33.4883 54.7172 33.959 54.6182 34.4057 54.4088L50.9827 46.6457C52.6137 45.8815 53.3198 43.9327 52.5566 42.301ZM27.9168 17.1191C27.8675 17.2564 27.7914 17.3826 27.693 17.4904C27.5946 17.5981 27.4758 17.6853 27.3435 17.7468C26.789 18.0065 26.1264 17.7665 25.8667 17.212C25.8044 17.0801 25.769 16.9371 25.7624 16.7913C25.7558 16.6455 25.7782 16.4999 25.8282 16.3629C25.8775 16.2255 25.9536 16.0994 26.052 15.9916C26.1504 15.8839 26.2691 15.7967 26.4014 15.7352C26.5485 15.6659 26.7091 15.63 26.8717 15.6298C26.9992 15.6298 27.1271 15.652 27.2505 15.6967C27.3878 15.746 27.514 15.8221 27.6217 15.9205C27.7295 16.0189 27.8166 16.1376 27.8782 16.2699C27.9405 16.4019 27.976 16.5449 27.9826 16.6906C27.9893 16.8364 27.9669 16.9821 27.9168 17.1191ZM29.947 11.1736C29.586 10.9449 29.1952 10.767 28.7857 10.645C29.149 8.13054 29.6473 5.25387 30.1664 4.00122C30.5319 3.11895 31.5338 1.13013 32.9375 1.71161C34.3411 2.29341 33.6423 4.40813 33.2766 5.29029C32.7811 6.48568 31.3203 9.18714 29.947 11.1736Z" fill="#2C2727"/>
<path d="M16.5873 27.1664C18.3329 26.2373 20.3359 26.0434 22.2274 26.621C25.3669 27.5794 27.4742 30.4265 27.4712 33.7057C27.4711 33.8115 27.4918 33.9163 27.5322 34.0141C27.5726 34.1119 27.6319 34.2008 27.7066 34.2757C27.7814 34.3506 27.8702 34.41 27.9679 34.4506C28.0656 34.4912 28.1704 34.5121 28.2762 34.5122H28.2769C28.4905 34.5122 28.6953 34.4274 28.8464 34.2764C28.9975 34.1255 29.0825 33.9208 29.0827 33.7072C29.0844 31.8152 28.469 29.9268 27.3499 28.3898C26.1922 26.8001 24.5836 25.6554 22.6978 25.0796C17.9434 23.6283 12.8949 26.3154 11.4437 31.0695C10.7406 33.3727 10.9765 35.8116 12.108 37.9372C13.2394 40.0629 15.1306 41.6207 17.4337 42.3238C18.2872 42.5845 19.1747 42.717 20.0672 42.717C21.336 42.7171 22.5905 42.4489 23.7485 41.9302C25.7161 41.0487 27.3033 39.4943 28.2176 37.5533C28.2627 37.4576 28.2886 37.3539 28.2936 37.2483C28.2986 37.1426 28.2828 37.0369 28.247 36.9373C28.2112 36.8378 28.1562 36.7462 28.085 36.6679C28.0138 36.5896 27.9279 36.5261 27.8322 36.481C27.7365 36.4359 27.6328 36.4101 27.5271 36.4051C27.4215 36.4 27.3158 36.4159 27.2162 36.4516C27.1167 36.4874 27.0251 36.5425 26.9468 36.6137C26.8685 36.6848 26.805 36.7707 26.7599 36.8665C25.2057 40.1657 21.3989 41.8494 17.9044 40.7824C16.013 40.2051 14.4598 38.9257 13.5306 37.1801C12.6015 35.4345 12.4077 33.4314 12.9852 31.5401C13.5623 29.6488 14.8418 28.0955 16.5873 27.1664Z" fill="#2C2727"/>
<path d="M23.1649 31.5086C23.0705 31.3301 22.9417 31.172 22.7858 31.0436C22.6299 30.9152 22.4501 30.819 22.2567 30.7607L21.8907 30.6489L22.1394 29.8342C22.199 29.6307 22.1759 29.4119 22.0752 29.2252C21.9745 29.0386 21.8043 28.8992 21.6014 28.8373C21.3986 28.7753 21.1795 28.7958 20.9917 28.8944C20.8039 28.9929 20.6625 29.1615 20.5982 29.3636L20.344 30.1968C19.2705 30.0115 18.1984 30.6492 17.8724 31.7176C17.7874 31.9932 17.758 32.2829 17.7857 32.57C17.8135 32.8571 17.8979 33.1358 18.0342 33.39C18.169 33.645 18.353 33.8707 18.5756 34.0541C18.7982 34.2374 19.055 34.3748 19.3311 34.4582L20.3454 34.7678C20.4188 34.79 20.4871 34.8266 20.5463 34.8753C20.6055 34.9241 20.6545 34.9841 20.6903 35.052C20.7265 35.1196 20.749 35.1937 20.7563 35.2701C20.7637 35.3464 20.7559 35.4235 20.7333 35.4968C20.7111 35.5702 20.6745 35.6385 20.6257 35.6977C20.577 35.7569 20.5169 35.8058 20.4491 35.8416C20.3816 35.8779 20.3074 35.9004 20.2311 35.9078C20.1547 35.9151 20.0777 35.9073 20.0044 35.8846L19.4974 35.7298L18.4285 35.4036C18.4699 35.2008 18.4317 34.9899 18.3219 34.8145C18.212 34.6391 18.0389 34.5127 17.8384 34.4615C17.6379 34.4103 17.4253 34.4382 17.2448 34.5394C17.0643 34.6406 16.9297 34.8074 16.8687 35.0051C16.6214 35.8157 17.0794 36.6765 17.8901 36.9241L18.2562 37.0359L18.0075 37.8505C17.9483 38.054 17.9717 38.2725 18.0724 38.4589C18.1732 38.6453 18.3433 38.7844 18.546 38.8463C18.7486 38.9082 18.9674 38.8877 19.1551 38.7894C19.3428 38.6911 19.4842 38.5229 19.5487 38.3211L19.8028 37.4887C19.9274 37.5104 20.0526 37.5226 20.1777 37.5226C20.5325 37.5226 20.8843 37.4356 21.2064 37.2641C21.4613 37.1293 21.687 36.9453 21.8704 36.7227C22.0537 36.5001 22.1911 36.2433 22.2746 35.9672C22.628 34.8094 21.9737 33.58 20.8159 33.2265L19.8016 32.917C19.7282 32.8947 19.6599 32.8582 19.6007 32.8094C19.5415 32.7607 19.4926 32.7006 19.4568 32.6328C19.4205 32.5652 19.3981 32.4911 19.3907 32.4147C19.3833 32.3384 19.3912 32.2613 19.4138 32.188C19.4591 32.0399 19.5613 31.9159 19.698 31.8432C19.8347 31.7705 19.9947 31.755 20.1428 31.8001L20.6495 31.9548L20.6498 31.9549H20.65L21.7185 32.2811C21.6766 32.4841 21.7145 32.6954 21.8243 32.8712C21.9341 33.047 22.1075 33.1736 22.3083 33.2249C22.5091 33.2762 22.7219 33.2481 22.9026 33.1466C23.0833 33.045 23.2178 32.8777 23.2783 32.6794C23.3378 32.4865 23.3583 32.2836 23.3389 32.0827C23.3194 31.8817 23.2603 31.6866 23.1649 31.5086ZM47.2204 42.2586L42.0637 31.3006C41.971 31.1101 41.807 30.9638 41.6072 30.8934C41.4074 30.823 41.1879 30.834 40.9962 30.9242C40.8045 31.0144 40.6561 31.1765 40.583 31.3753C40.5099 31.5742 40.518 31.7938 40.6057 31.9867L45.7624 42.9447C45.8275 43.0832 45.9307 43.2002 46.0599 43.2822C46.1891 43.3642 46.339 43.4077 46.492 43.4076C46.6277 43.4075 46.7612 43.3732 46.88 43.3077C46.9989 43.2423 47.0993 43.1479 47.1719 43.0333C47.2446 42.9187 47.2871 42.7876 47.2956 42.6522C47.3041 42.5168 47.2782 42.3814 47.2204 42.2586ZM43.6179 44.1853L38.4612 33.2272C38.3702 33.0338 38.2062 32.8846 38.0051 32.8122C37.8041 32.7398 37.5825 32.7502 37.3891 32.8412C37.1958 32.9322 37.0465 33.0963 36.9741 33.2973C36.9017 33.4984 36.9122 33.7199 37.0032 33.9133L42.1599 44.8714C42.225 45.0098 42.3282 45.1269 42.4574 45.2089C42.5866 45.2908 42.7365 45.3343 42.8895 45.3342C43.0252 45.3341 43.1586 45.2998 43.2775 45.2343C43.3964 45.1689 43.4968 45.0745 43.5694 44.9599C43.6421 44.8453 43.6846 44.7142 43.6931 44.5788C43.7016 44.4434 43.6757 44.308 43.6179 44.1853Z" fill="#2C2727"/>
</g>
<defs>
<clipPath id="clip0_773_1947">
<rect width="55" height="55" fill="white"/>
</clipPath>
</defs>
</svg>
