<svg width="55" height="55" viewBox="0 0 55 55" fill="none" xmlns="http://www.w3.org/2000/svg">
<g clip-path="url(#clip0_773_1936)">
<circle cx="17" cy="39.1084" r="4" fill="#FFC122"/>
<circle cx="47" cy="39.1084" r="4" fill="#FFC122"/>
<path d="M48 19.6084C48 21.8175 51.2091 25.1084 49 25.1084C37.5 26.1084 39 24.3176 39 22.1084C39 19.8993 40.7909 18.1084 43 18.1084C45.2091 18.1084 48 17.3993 48 19.6084Z" fill="#FFC122"/>
<path d="M51.1498 24.8535L49.7255 19.1564C50.1149 19.0737 50.4071 18.7282 50.4071 18.3143V17.3957C50.4071 15.4013 48.7845 13.7788 46.7902 13.7788H40.3028V11.8841C40.3028 10.9027 39.5044 10.1044 38.523 10.1044H5.45402C4.47262 10.1044 3.67426 10.9027 3.67426 11.8841V27.5001C3.67426 27.7285 3.76499 27.9475 3.9265 28.109C4.088 28.2705 4.30705 28.3613 4.53546 28.3613C4.76386 28.3613 4.98291 28.2705 5.14442 28.109C5.30593 27.9475 5.39666 27.7285 5.39666 27.5001V11.8841C5.39666 11.8524 5.42233 11.8268 5.45402 11.8268H38.5229C38.5546 11.8268 38.5802 11.8524 38.5802 11.8841V27.5003C38.5802 27.7287 38.671 27.9477 38.8325 28.1092C38.994 28.2707 39.213 28.3615 39.4414 28.3615C39.6698 28.3615 39.8889 28.2707 40.0504 28.1092C40.2119 27.9477 40.3026 27.7287 40.3026 27.5003V26.524H50.4614L50.4637 26.5242L50.466 26.5241C51.7161 26.525 52.7775 27.3455 53.1421 28.4761H50.4643C50.2359 28.4761 50.0169 28.5668 49.8554 28.7283C49.6939 28.8898 49.6031 29.1089 49.6031 29.3373V31.1744C49.6031 32.6623 50.8135 33.8727 52.3015 33.8727H53.2775V37.6618H51.0257C50.286 35.526 48.2556 33.9875 45.8714 33.9875C43.4872 33.9875 41.4567 35.526 40.7171 37.6618H40.3024V31.1743C40.3024 30.9459 40.2117 30.7269 40.0502 30.5654C39.8887 30.4038 39.6696 30.3131 39.4412 30.3131C39.2128 30.3131 38.9938 30.4038 38.8323 30.5654C38.6708 30.7269 38.58 30.9459 38.58 31.1743V37.6616H20.7128C19.9731 35.5258 17.9427 33.9873 15.5584 33.9873C13.1742 33.9873 11.1437 35.5258 10.4041 37.6616H5.45402C5.43881 37.6616 5.42422 37.6556 5.41346 37.6448C5.4027 37.6341 5.39666 37.6195 5.39666 37.6043V35.7097H9.12839C9.35679 35.7097 9.57584 35.6189 9.73735 35.4574C9.89886 35.2959 9.98959 35.0769 9.98959 34.8485C9.98959 34.6201 9.89886 34.401 9.73735 34.2395C9.57584 34.078 9.35679 33.9873 9.12839 33.9873H0.861201C0.632796 33.9873 0.413747 34.078 0.25224 34.2395C0.0907334 34.401 0 34.6201 0 34.8485C0 35.0769 0.0907334 35.2959 0.25224 35.4574C0.413747 35.6189 0.632796 35.7097 0.861201 35.7097H3.67437V37.6043C3.67437 38.5857 4.47272 39.384 5.45413 39.384H10.1059C10.1057 39.4032 10.1044 39.4222 10.1044 39.4414C10.1044 42.4488 12.5512 44.8954 15.5584 44.8954C18.5657 44.8954 21.0125 42.4488 21.0125 39.4414C21.0125 39.4221 21.0112 39.4032 21.011 39.384H40.4189C40.4187 39.4032 40.4174 39.4222 40.4174 39.4414C40.4174 42.4488 42.8641 44.8954 45.8714 44.8954C48.8787 44.8954 51.3254 42.4488 51.3254 39.4414C51.3254 39.4221 51.3241 39.4032 51.3239 39.384H54.1387C54.3671 39.384 54.5861 39.2933 54.7477 39.1318C54.9092 38.9703 54.9999 38.7512 54.9999 38.5228V29.3371C55 27.0692 53.3267 25.1849 51.1498 24.8535ZM40.3028 15.5011H46.7902C47.8349 15.5011 48.6848 16.3511 48.6848 17.3957V17.4531H40.3028V15.5011ZM40.3028 24.8017V19.1754H47.9549L49.3615 24.8017H40.3028ZM15.5584 43.1733C13.5008 43.1733 11.8267 41.4994 11.8267 39.4416C11.8267 37.3838 13.5008 35.7099 15.5584 35.7099C17.6161 35.7099 19.2902 37.3838 19.2902 39.4416C19.2902 41.4994 17.6161 43.1733 15.5584 43.1733ZM45.8716 43.1733C43.8139 43.1733 42.1399 41.4994 42.1399 39.4416C42.1399 37.3838 43.8139 35.7099 45.8716 35.7099C47.9293 35.7099 49.6033 37.3838 49.6033 39.4416C49.6033 41.4994 47.9293 43.1733 45.8716 43.1733ZM53.2777 32.1503H52.3017C51.7635 32.1503 51.3256 31.7125 51.3256 31.1743V30.1983H53.2776V32.1503H53.2777Z" fill="#2C2727"/>
<path d="M15.5584 37.6618C14.577 37.6618 13.7787 38.4601 13.7787 39.4416C13.7787 40.423 14.577 41.2213 15.5584 41.2213C16.5399 41.2213 17.3382 40.423 17.3382 39.4416C17.3382 38.4601 16.5399 37.6618 15.5584 37.6618ZM45.8716 37.6618C44.8902 37.6618 44.0918 38.4601 44.0918 39.4416C44.0918 40.423 44.8902 41.2213 45.8716 41.2213C46.853 41.2213 47.6514 40.423 47.6514 39.4416C47.6514 38.4601 46.853 37.6618 45.8716 37.6618ZM35.7672 33.9875H22.9071C22.6787 33.9875 22.4596 34.0783 22.2981 34.2398C22.1366 34.4013 22.0459 34.6203 22.0459 34.8487C22.0459 35.0771 22.1366 35.2962 22.2981 35.4577C22.4596 35.6192 22.6787 35.7099 22.9071 35.7099H35.7672C35.9956 35.7099 36.2146 35.6192 36.3761 35.4577C36.5377 35.2962 36.6284 35.0771 36.6284 34.8487C36.6284 34.6203 36.5377 34.4013 36.3761 34.2398C36.2146 34.0783 35.9956 33.9875 35.7672 33.9875ZM13.7213 30.3132H2.69833C2.46992 30.3132 2.25087 30.4039 2.08937 30.5654C1.92786 30.7269 1.83713 30.946 1.83713 31.1744C1.83713 31.4028 1.92786 31.6218 2.08937 31.7833C2.25087 31.9448 2.46992 32.0356 2.69833 32.0356H13.7213C13.9497 32.0356 14.1688 31.9448 14.3303 31.7833C14.4918 31.6218 14.5825 31.4028 14.5825 31.1744C14.5825 30.946 14.4918 30.7269 14.3303 30.5654C14.1688 30.4039 13.9497 30.3132 13.7213 30.3132ZM29.9461 18.6237C29.7846 18.4623 29.5655 18.3716 29.3372 18.3716C29.1088 18.3716 28.8897 18.4623 28.7283 18.6238L21.0699 26.282L17.086 22.2981C17.006 22.2181 16.9111 22.1547 16.8066 22.1114C16.7021 22.0681 16.5902 22.0458 16.4771 22.0458C16.364 22.0458 16.252 22.0681 16.1475 22.1114C16.043 22.1547 15.9481 22.2181 15.8681 22.2981C15.7882 22.3781 15.7247 22.473 15.6815 22.5775C15.6382 22.6819 15.6159 22.7939 15.6159 22.907C15.6159 23.0201 15.6382 23.1321 15.6815 23.2366C15.7247 23.341 15.7882 23.436 15.8681 23.5159L20.4611 28.1089C20.6292 28.2771 20.8496 28.3611 21.0699 28.3611C21.2903 28.3611 21.5108 28.2771 21.6788 28.1089L29.946 19.8417C30.1075 19.6802 30.1982 19.4611 30.1983 19.2327C30.1983 19.0043 30.1076 18.7853 29.9461 18.6237Z" fill="#2C2727"/>
</g>
<defs>
<clipPath id="clip0_773_1936">
<rect width="55" height="55" fill="white"/>
</clipPath>
</defs>
</svg>
